<svg fill="none" height="14" viewBox="0 0 14 14" width="14" xmlns="http://www.w3.org/2000/svg" xmlns:xlink="http://www.w3.org/1999/xlink"><filter id="a" color-interpolation-filters="sRGB" filterUnits="userSpaceOnUse" height="13.139" width="12.139" x=".93042" y=".930481"><feFlood flood-opacity="0" result="BackgroundImageFix"/><feBlend in="SourceGraphic" in2="BackgroundImageFix" mode="normal" result="shape"/><feColorMatrix in="SourceAlpha" result="hardAlpha" type="matrix" values="0 0 0 0 0 0 0 0 0 0 0 0 0 0 0 0 0 0 127 0"/><feOffset dy="1"/><feGaussianBlur stdDeviation="1"/><feComposite in2="hardAlpha" k2="-1" k3="1" operator="arithmetic"/><feColorMatrix type="matrix" values="0 0 0 0 0 0 0 0 0 0 0 0 0 0 0 0 0 0 0.7 0"/><feBlend in2="shape" mode="normal" result="effect1_innerShadow_1_284"/></filter><g filter="url(#a)"><path clip-rule="evenodd" d="m1.51621 1.75359c-.781052.78105-.781052 2.04738 0 2.82843l2.41797 2.41797-2.41797 2.41797c-.781052.78104-.781052 2.04734 0 2.82844l.23732.2373c.78105.7811 2.04738.7811 2.82843 0l2.41797-2.418 2.41797 2.418c.7811.7811 2.0474.7811 2.8284 0l.2374-.2373c.781-.7811.781-2.0474 0-2.82844l-2.418-2.41797 2.418-2.41797c.781-.78105.781-2.04738 0-2.82843l-.2374-.23732c-.781-.781051-2.0473-.781051-2.8284 0l-2.41797 2.41797-2.41797-2.41797c-.78105-.781051-2.04738-.781051-2.82843 0z" fill="#868686" fill-rule="evenodd"/></g></svg>