<svg fill="none" height="98" viewBox="0 0 147 98" width="147" xmlns="http://www.w3.org/2000/svg" xmlns:xlink="http://www.w3.org/1999/xlink"><linearGradient id="a"><stop offset="0" stop-color="#f1f1f1"/><stop offset=".3331" stop-color="#c1c1c1"/><stop offset=".416309" stop-color="#cecece"/><stop offset=".664881" stop-color="#9e9e9e"/><stop offset=".760659" stop-color="#c1c1c1"/><stop offset="1" stop-color="#e4e3e3"/></linearGradient><linearGradient id="b" gradientUnits="userSpaceOnUse" x1="63.9664" x2="-25.9448" xlink:href="#a" y1="-19.5816" y2="32.3287"/><linearGradient id="c"><stop offset="0" stop-color="#fff"/><stop offset="1" stop-color="#878787"/></linearGradient><linearGradient id="d" gradientUnits="userSpaceOnUse" x1="57.4857" x2="56.4851" xlink:href="#c" y1="9.86266" y2="13.5969"/><linearGradient id="e" gradientUnits="userSpaceOnUse" x1="118.034" x2="42.7337" xlink:href="#a" y1="-5.93706" y2="37.5378"/><linearGradient id="f" gradientUnits="userSpaceOnUse" x1="112.607" x2="111.769" xlink:href="#c" y1="18.7225" y2="21.8499"/><mask id="g" fill="#fff"><path clip-rule="evenodd" d="m87.6717 52.3415-8.446-4.641c-.0734-1.7181-.2948-3.4274-.6642-5.1278l6.6808-6.4598c.786-.7599.9535-1.9283.4232-2.8468l-4.7067-8.1523c-.5304-.9185-1.6259-1.3577-2.677-1.057l-8.9347 2.5559c-1.288-1.1701-2.6576-2.2165-4.1088-3.1391l.249-9.6228c-.0047-1.0689-.7162-2.036-1.7576-2.3151l-9.0555-2.4264c-1.0414-.27904-2.1411.20276-2.6797 1.1261l-4.5957 8.4581c-1.7181.0734-3.4274.2948-5.1279.6642l-6.4597-6.6808c-.76-.786-1.9283-.9535-2.8469-.4231l-8.1522 4.7067c-.9185.5303-1.3577 1.6258-1.057 2.677l2.5559 8.9347c-1.1701 1.2879-2.2165 2.6575-3.1392 4.1088l-9.333-.1229c-1.0568-.0406-2.0239.6709-2.3029 1.7123l-2.42647 9.0555c-.27903 1.0414.20277 2.1411 1.13817 2.6344l8.1442 4.5601c.0734 1.7182.2948 3.4275.6642 5.1279l-6.6808 6.4597c-.786.76-.9535 1.9283-.4231 2.8469l4.7066 8.1522c.5304.9186 1.6259 1.3577 2.6771 1.057l8.9347-2.5559c1.2879 1.1701 2.6575 2.2165 4.1087 3.1392l-.1681 9.3209c.0047 1.0689.7162 2.036 1.7576 2.3151l9.0555 2.4264c1.0414.279 2.1411-.2028 2.6796-1.1261l4.5149-8.1563c1.7182-.0734 3.4274-.2948 5.1279-.6641l6.4597 6.6808c.76.7859 1.9283.9534 2.8469.4231l8.1522-4.7067c.9185-.5303 1.3577-1.6259 1.057-2.677l-2.5559-8.9347c1.1701-1.2879 2.2165-2.6575 3.1392-4.1088l9.6349.2038c1.0568.0405 2.0239-.671 2.3029-1.7123l2.4264-9.0556c.2791-1.0414-.2027-2.1411-1.1382-2.6344zm-41.896 8.0884c-6.2483-1.6742-9.9606-8.1041-8.2864-14.3525 1.6742-6.2483 8.1042-9.9606 14.3525-8.2864 6.2483 1.6743 9.9606 8.1042 8.2864 14.3525s-8.1041 9.9607-14.3525 8.2864z" fill="#fff" fill-rule="evenodd"/></mask><mask id="h" fill="#fff"><path clip-rule="evenodd" d="m137.888 54.2985-7.074-3.8868c-.061-1.439-.247-2.8705-.556-4.2946l5.595-5.41c.658-.6365.798-1.615.354-2.3843l-3.942-6.8275c-.444-.7692-1.361-1.137-2.242-.8852l-7.482 2.1405c-1.079-.9799-2.226-1.8562-3.441-2.629l.208-8.0591c-.004-.8952-.6-1.7051-1.472-1.9388l-7.584-2.0322c-.872-.2337-1.793.1699-2.244.9431l-3.849 7.0837c-1.439.0615-2.87.2469-4.2946.5563l-5.41-5.5952c-.6365-.6583-1.615-.7985-2.3843-.3544l-6.8275 3.9419c-.7692.4441-1.137 1.3617-.8852 2.242l2.1405 7.4828c-.9799 1.0786-1.8562 2.2257-2.629 3.4411l-7.8165-.1029c-.885-.034-1.6949.5619-1.9286 1.434l-2.0322 7.5841c-.2337.8721.1699 1.7931.9533 2.2062l6.8207 3.8191c.0615 1.439.2469 2.8705.5563 4.2946l-5.5952 5.4101c-.6583.6364-.7985 1.6149-.3544 2.3842l3.9419 6.8275c.4441.7693 1.3617 1.1371 2.242.8852l7.4828-2.1405c1.0786.9799 2.2257 1.8563 3.4411 2.629l-.1408 7.8063c.0039.8952.5998 1.7052 1.4719 1.9389l7.5838 2.0321c.872.2337 1.793-.1698 2.244-.9431l3.782-6.8309c1.439-.0615 2.87-.2469 4.294-.5562l5.41 5.5951c.637.6583 1.615.7986 2.385.3544l6.827-3.9418c.769-.4442 1.137-1.3617.885-2.242l-2.14-7.4829c.98-1.0786 1.856-2.2256 2.629-3.4411l8.069.1707c.885.0339 1.695-.5619 1.929-1.4341l2.032-7.584c.233-.8721-.17-1.7931-.953-2.2063zm-34.434 7.3153c-5.3323-1.4287-8.5002-6.9156-7.0715-12.2475s6.9155-8.4997 12.2475-7.071c5.332 1.4286 8.5 6.9155 7.071 12.2474s-6.916 8.4997-12.247 7.0711z" fill="#fff" fill-rule="evenodd"/></mask><path clip-rule="evenodd" d="m87.6717 52.3415-8.446-4.641c-.0734-1.7181-.2948-3.4274-.6642-5.1278l6.6808-6.4598c.786-.7599.9535-1.9283.4232-2.8468l-4.7067-8.1523c-.5304-.9185-1.6259-1.3577-2.677-1.057l-8.9347 2.5559c-1.288-1.1701-2.6576-2.2165-4.1088-3.1391l.249-9.6228c-.0047-1.0689-.7162-2.036-1.7576-2.3151l-9.0555-2.4264c-1.0414-.27904-2.1411.20276-2.6797 1.1261l-4.5957 8.4581c-1.7181.0734-3.4274.2948-5.1279.6642l-6.4597-6.6808c-.76-.786-1.9283-.9535-2.8469-.4231l-8.1522 4.7067c-.9185.5303-1.3577 1.6258-1.057 2.677l2.5559 8.9347c-1.1701 1.2879-2.2165 2.6575-3.1392 4.1088l-9.333-.1229c-1.0568-.0406-2.0239.6709-2.3029 1.7123l-2.42647 9.0555c-.27903 1.0414.20277 2.1411 1.13817 2.6344l8.1442 4.5601c.0734 1.7182.2948 3.4275.6642 5.1279l-6.6808 6.4597c-.786.76-.9535 1.9283-.4231 2.8469l4.7066 8.1522c.5304.9186 1.6259 1.3577 2.6771 1.057l8.9347-2.5559c1.2879 1.1701 2.6575 2.2165 4.1087 3.1392l-.1681 9.3209c.0047 1.0689.7162 2.036 1.7576 2.3151l9.0555 2.4264c1.0414.279 2.1411-.2028 2.6796-1.1261l4.5149-8.1563c1.7182-.0734 3.4274-.2948 5.1279-.6641l6.4597 6.6808c.76.7859 1.9283.9534 2.8469.4231l8.1522-4.7067c.9185-.5303 1.3577-1.6259 1.057-2.677l-2.5559-8.9347c1.1701-1.2879 2.2165-2.6575 3.1392-4.1088l9.6349.2038c1.0568.0405 2.0239-.671 2.3029-1.7123l2.4264-9.0556c.2791-1.0414-.2027-2.1411-1.1382-2.6344zm-41.896 8.0884c-6.2483-1.6742-9.9606-8.1041-8.2864-14.3525 1.6742-6.2483 8.1042-9.9606 14.3525-8.2864 6.2483 1.6743 9.9606 8.1042 8.2864 14.3525s-8.1041 9.9607-14.3525 8.2864z" fill="url(#b)" fill-rule="evenodd"/><path d="m87.6717 52.3415-.9631 1.7528.015.0083.0152.008zm-8.446-4.641-1.9981.0854.048 1.1251.987.5424zm-.6642-5.1278-1.3902-1.4378-.8006.7741.2364 1.0882zm7.104-9.3066-1.7321 1zm-4.7067-8.1523 1.732-1zm-2.677-1.057-.5501-1.9228zm-8.9347 2.5559-1.3449 1.4803.8242.7489 1.0707-.3063zm-4.1088-3.1391-1.9994-.0518-.0293 1.132.9556.6075zm.249-9.6228 1.9994.0517.0007-.0303-.0001-.0303zm-1.7576-2.3151.5177-1.93182zm-9.0555-2.4264-.5177 1.9319zm-2.6797 1.1261-1.7275-1.00772-.0153.0262-.0145.02665zm-4.5957 8.4581.0854 1.9982 1.1314-.0484.5406-.9949zm-5.1279.6642-1.4378 1.3902.7741.8006 1.0883-.2364zm-6.4597-6.6808 1.4378-1.3902zm-2.8469-.4231 1 1.732zm-8.1522 4.7067-1-1.7321zm-1.057 2.677-1.9228.55zm2.5559 8.9347 1.4803 1.3448.7488-.8242-.3062-1.0707zm-3.1392 4.1088-.0263 1.9998 1.1156.0147.5985-.9415zm-9.333-.1229-.0767 1.9985.0252.001.0251.0003zm-3.5912 13.4022.9772-1.7451-.022-.0123-.0222-.0117zm8.1442 4.5601 1.9982-.0854-.0477-1.1146-.9734-.5451zm.6642 5.1279 1.3902 1.4378.8006-.7741-.2364-1.0883zm-6.6808 6.4597-1.3903-1.4378zm6.9606 12.0561.55 1.9229zm8.9347-2.5559 1.3448-1.4803-.8242-.7488-1.0707.3063zm4.1087 3.1392 1.9997.0361.0203-1.1219-.9469-.602zm-.1681 9.3209-1.9997-.036-.0004.0224.0001.0225zm1.7576 2.3151.5176-1.9319zm9.0555 2.4264-.5176 1.9318zm2.6796-1.1261 1.7276 1.0077.0114-.0194.0109-.0197zm4.5149-8.1563-.0854-1.9981-1.121.0479-.5434.9817zm5.1279-.6641 1.4378-1.3903-.7741-.8006-1.0883.2364zm9.3066 7.1039-1-1.7321zm8.1522-4.7067 1 1.732zm-1.4989-11.6117-1.4803-1.3449-.7488.8243.3062 1.0706zm3.1392-4.1088.0423-1.9996-1.1259-.0238-.6042.9503zm9.6349.2038.0766-1.9986-.0171-.0006-.0172-.0004zm4.5543-15.1551-8.446-4.641-1.9263 3.5057 8.446 4.6409zm-7.411-2.9735c-.0784-1.8337-.3146-3.6564-.7079-5.4671l-3.9089.8491c.3454 1.5901.552 3.186.6205 4.7887zm-1.2721-3.6047 6.6808-6.4598-2.7805-2.8756-6.6808 6.4598zm6.6808-6.4598c1.4293-1.382 1.7654-3.5517.7649-5.2846l-3.4641 2c.0601.1041.0614.2711-.0813.409zm.7649-5.2846-4.7067-8.1523-3.4641 2 4.7067 8.1523zm-4.7067-8.1523c-1.0005-1.7329-3.0476-2.5266-4.9591-1.9798l1.1001 3.8457c.1908-.0546.3348.03.3949.1341zm-4.9591-1.9798-8.9347 2.5558 1.1001 3.8458 8.9347-2.5559zm-7.0398 2.9984c-1.3714-1.246-2.8318-2.3619-4.3806-3.3466l-2.1461 3.3755c1.3538.8607 2.6326 1.8375 3.837 2.9317zm-3.4543-1.6071.2491-9.6228-3.9987-.1035-.2491 9.6228zm.2497-9.6834c-.0086-1.931-1.2895-3.7154-3.2399-4.23802l-1.0353 3.86372c.1323.0354.2743.1852.2752.3921zm-3.2399-4.23802-9.0556-2.42643-1.0353 3.86375 9.0556 2.4264zm-9.0556-2.42643c-1.9504-.52262-3.9519.38224-4.9248 2.05023l3.4551 2.01542c.1042-.1787.3021-.2374.4344-.2019zm-4.9546 2.10308-4.5957 8.45807 3.5147 1.9098 4.5957-8.4582zm-2.9238 7.41477c-1.8336.0784-3.6563.3147-5.467.708l.8491 3.9088c1.5901-.3454 3.186-.5519 4.7887-.6204zm-3.6047 1.2722-6.4597-6.6808-2.8756 2.7804 6.4597 6.6808zm-6.4597-6.6808c-1.382-1.42933-3.5517-1.76551-5.2847-.765l2 3.4641c.1042-.0601.2712-.0613.4091.0813zm-5.2847-.765-8.1522 4.7067 2 3.4641 8.1522-4.7067zm-8.1522 4.7067c-1.7329 1.0005-2.5267 3.0476-1.9798 4.9591l3.8457-1.1001c-.0546-.1908.03-.3348.1341-.3949zm-1.9798 4.9591 2.5558 8.9347 3.8458-1.1001-2.5559-8.9347zm2.9984 7.0398c-1.246 1.3714-2.362 2.8318-3.3466 4.3806l3.3755 2.1461c.8607-1.3538 1.8375-2.6326 2.9317-3.837zm-1.6325 3.4538-9.3331-.1229-.0527 3.9997 9.3331.1229zm-9.2828-.1216c-1.9985-.0766-3.7929 1.2582-4.31139 3.1932l3.86369 1.0353c.0183-.0684.0595-.1287.1189-.1727.06-.0445.1225-.0607.1755-.0587zm-4.31139 3.1932-2.42643 9.0556 3.86372 1.0353 2.4264-9.0556zm-2.42643 9.0556c-.5185 1.9351.36814 3.9882 2.13716 4.9211l1.86586-3.5382c-.047-.0248-.093-.0701-.1227-.1386-.0295-.0678-.0349-.1406-.0166-.209zm2.09296 4.897 8.14416 4.5602 1.9542-3.4902-8.1441-4.5601zm7.12306 2.9005c.0784 1.8336.3146 3.6563.7079 5.467l3.9089-.8491c-.3454-1.5901-.5519-3.186-.6204-4.7887zm1.2721 3.6047-6.6808 6.4597 2.7805 2.8756 6.6808-6.4597zm-6.6808 6.4597c-1.42925 1.382-1.76543 3.5517-.7649 5.2847l3.4641-2c-.0601-.1041-.0614-.2711.0813-.4091zm-.7649 5.2847 4.7067 8.1522 3.4641-2-4.7067-8.1522zm4.7067 8.1522c1.0005 1.733 3.0476 2.5267 4.9591 1.9799l-1.1001-3.8458c-.1908.0546-.3348-.03-.3949-.1341zm4.9591 1.9799 8.9347-2.5559-1.1001-3.8457-8.9347 2.5558zm7.0398-2.9985c1.3714 1.246 2.8318 2.362 4.3806 3.3467l2.1461-3.3756c-1.3538-.8607-2.6326-1.8375-3.837-2.9317zm3.454 1.6228-.1682 9.321 3.9993.0721.1682-9.3209zm-.1685 9.3659c.0086 1.931 1.2895 3.7154 3.2399 4.238l1.0353-3.8637c-.1324-.0355-.2743-.1852-.2753-.3921zm3.2399 4.238 9.0556 2.4264 1.0352-3.8637-9.0555-2.4264zm9.0556 2.4264c1.9504.5227 3.9519-.3822 4.9248-2.0502l-3.4551-2.0154c-.1042.1787-.3021.2374-.4345.2019zm4.9471-2.0893 4.5148-8.1563-3.4996-1.9371-4.5149 8.1562zm2.8504-7.1267c1.8336-.0783 3.6563-.3146 5.467-.7079l-.8491-3.9089c-1.5901.3454-3.186.552-4.7887.6205zm3.6047-1.2721 6.4597 6.6808 2.8756-2.7805-6.4597-6.6808zm6.4597 6.6808c1.382 1.4293 3.5517 1.7655 5.2847.7649l-2-3.4641c-.1042.0602-.2712.0614-.4091-.0813zm5.2847.7649 8.1522-4.7067-2-3.4641-8.1522 4.7067zm8.1522-4.7067c1.733-1.0005 2.5267-3.0476 1.9799-4.9591l-3.8458 1.1001c.0546.1908-.03.3348-.1341.3949zm1.9799-4.9591-2.5559-8.9347-3.8458 1.1001 2.5559 8.9347zm-2.9985-7.0398c1.246-1.3714 2.362-2.8318 3.3466-4.3806l-3.3755-2.1461c-.8607 1.3538-1.8375 2.6326-2.9317 3.837zm1.6166-3.4541 9.6349.2038.0846-3.9991-9.6349-.2038zm9.6006.2028c1.9984.0766 3.7929-1.2581 4.3114-3.1932l-3.8638-1.0353c-.0183.0684-.0594.1287-.1188.1728-.06.0444-.1226.0607-.1756.0586zm4.3114-3.1932 2.4264-9.0556-3.8637-1.0352-2.4265 9.0555zm2.4264-9.0556c.5185-1.935-.3682-3.9882-2.1372-4.921l-1.8658 3.5381c.0469.0248.093.0701.1227.1386.0294.0679.0349.1407.0166.2091zm-44.4484 3.0046c-5.1814-1.3884-8.2606-6.7216-6.8722-11.903l-3.8637-1.0353c-1.9602 7.3153 2.3853 14.8418 9.7006 16.802zm-6.8722-11.903c1.3883-5.1814 6.7216-8.2606 11.903-6.8722l1.0352-3.8637c-7.3152-1.9601-14.8418 2.3853-16.8019 9.7006zm11.903-6.8722c5.1814 1.3883 8.2605 6.7216 6.8721 11.903l3.8637 1.0352c1.9602-7.3152-2.3853-14.8418-9.7006-16.8019zm6.8721 11.903c-1.3883 5.1814-6.7215 8.2605-11.9029 6.8722l-1.0353 3.8637c7.3152 1.9601 14.8418-2.3854 16.8019-9.7007z" fill="url(#d)" mask="url(#g)"/><path clip-rule="evenodd" d="m137.888 54.2985-7.074-3.8868c-.061-1.439-.247-2.8705-.556-4.2946l5.595-5.41c.658-.6365.798-1.615.354-2.3843l-3.942-6.8275c-.444-.7692-1.361-1.137-2.242-.8852l-7.482 2.1405c-1.079-.9799-2.226-1.8562-3.441-2.629l.208-8.0591c-.004-.8952-.6-1.7051-1.472-1.9388l-7.584-2.0322c-.872-.2337-1.793.1699-2.244.9431l-3.849 7.0837c-1.439.0615-2.87.2469-4.2946.5563l-5.41-5.5952c-.6365-.6583-1.615-.7985-2.3843-.3544l-6.8275 3.9419c-.7692.4441-1.137 1.3617-.8852 2.242l2.1405 7.4828c-.9799 1.0786-1.8562 2.2257-2.629 3.4411l-7.8165-.1029c-.885-.034-1.6949.5619-1.9286 1.434l-2.0322 7.5841c-.2337.8721.1699 1.7931.9533 2.2062l6.8207 3.8191c.0615 1.439.2469 2.8705.5563 4.2946l-5.5952 5.4101c-.6583.6364-.7985 1.6149-.3544 2.3842l3.9419 6.8275c.4441.7693 1.3617 1.1371 2.242.8852l7.4828-2.1405c1.0786.9799 2.2257 1.8563 3.4411 2.629l-.1408 7.8063c.0039.8952.5998 1.7052 1.4719 1.9389l7.5838 2.0321c.872.2337 1.793-.1698 2.244-.9431l3.782-6.8309c1.439-.0615 2.87-.2469 4.294-.5562l5.41 5.5951c.637.6583 1.615.7986 2.385.3544l6.827-3.9418c.769-.4442 1.137-1.3617.885-2.242l-2.14-7.4829c.98-1.0786 1.856-2.2256 2.629-3.4411l8.069.1707c.885.0339 1.695-.5619 1.929-1.4341l2.032-7.584c.233-.8721-.17-1.7931-.953-2.2063zm-34.434 7.3153c-5.3323-1.4287-8.5002-6.9156-7.0715-12.2475s6.9155-8.4997 12.2475-7.071c5.332 1.4286 8.5 6.9155 7.071 12.2474s-6.916 8.4997-12.247 7.0711z" fill="url(#e)" fill-rule="evenodd"/><path d="m137.888 54.2985-.964 1.7529.015.0082.016.008zm-7.074-3.8868-1.998.0854.048 1.1251.987.5423zm-.556-4.2946-1.39-1.4378-.801.7741.236 1.0882zm5.595-5.41 1.39 1.4378zm.354-2.3843-1.732 1zm-3.942-6.8275 1.733-1zm-2.242-.8852.551 1.9229zm-7.482 2.1405-1.345 1.4804.824.7488 1.071-.3063zm-3.441-2.629-2-.0517-.029 1.1319.955.6076zm.208-8.0591 1.999.0518.001-.0304v-.0303zm-1.472-1.9388.518-1.9319zm-7.584-2.0322-.518 1.9319zm-2.244.9431-1.728-1.0077-.015.0262-.014.0267zm-3.849 7.0837.085 1.9982 1.132-.0484.54-.9949zm-4.2946.5563-1.4378 1.3902.7741.8006 1.0883-.2364zm-5.41-5.5952 1.4378-1.3902zm-2.3843-.3544 1 1.7321zm-6.8275 3.9419-1-1.7321zm-.8852 2.242-1.9229.55zm2.1405 7.4828 1.4804 1.3449.7488-.8243-.3063-1.0707zm-2.629 3.4411-.0263 1.9998 1.1155.0147.5986-.9415zm-7.8165-.1029-.0766 1.9985.0252.001.0251.0003zm-1.9286 1.434-1.9319-.5176zm-2.0322 7.5841 1.9319.5176zm.9533 2.2062.9771-1.745-.022-.0123-.0222-.0117zm6.8207 3.8191 1.9982-.0854-.0477-1.1146-.9734-.545zm.5563 4.2946 1.3902 1.4378.8006-.7741-.2364-1.0882zm-5.5952 5.4101 1.3902 1.4378zm-.3544 2.3842-1.732 1zm3.9419 6.8275 1.732-1zm2.242.8852.55 1.9229zm7.4828-2.1405 1.3449-1.4803-.8243-.7489-1.0707.3063zm3.4411 2.629 1.9997.0361.0202-1.1218-.9469-.602zm-.1408 7.8063-1.9997-.036-.0004.0224.0001.0225zm11.2997 3.0279 1.728 1.0077.011-.0194.011-.0197zm3.782-6.8309-.086-1.9981-1.121.0479-.543.9816zm4.294-.5562 1.438-1.3902-.774-.8006-1.088.2364zm5.41 5.5951-1.438 1.3903zm2.385.3544 1 1.7321zm6.827-3.9418-1-1.7321zm.885-2.242 1.923-.5501zm-2.14-7.4829-1.481-1.3448-.748.8242.306 1.0707zm2.629-3.4411.042-1.9995-1.126-.0238-.604.9503zm8.069.1707.077-1.9985-.018-.0007-.017-.0003zm3.971-12.9772-7.074-3.8868-1.926 3.5056 7.073 3.8869zm-6.039-2.2194c-.066-1.5544-.267-3.0994-.6-4.6337l-3.909.849c.286 1.3139.456 2.632.513 3.9555zm-1.164-2.7714 5.595-5.41-2.78-2.8756-5.595 5.41zm5.595-5.41c1.302-1.2585 1.611-3.2384.696-4.8221l-3.464 2c-.004-.0071-.008-.0166-.009-.0268-.002-.0095-.002-.0171-.001-.0223s.002-.0084.003-.0097c.001-.0019 0 .0001-.005.0053zm.696-4.8221-3.941-6.8275-3.465 2 3.942 6.8275zm-3.941-6.8275c-.915-1.5837-2.784-2.306-4.525-1.8081l1.101 3.8458c.007-.0021.009-.0015.007-.0016s-.005-.0005-.01-.0025c-.005-.0019-.012-.0055-.019-.0118-.008-.0067-.014-.0146-.019-.0218zm-4.525-1.8081-7.482 2.1406 1.1 3.8457 7.483-2.1405zm-5.587 2.5831c-1.163-1.0558-2.4-2.0017-3.713-2.8365l-2.147 3.3756c1.118.7107 2.175 1.5175 3.17 2.4216zm-2.787-1.0969.208-8.0591-3.998-.1035-.209 8.0591zm.209-8.1198c-.008-1.7573-1.173-3.3845-2.954-3.8618l-1.035 3.8637c-.004-.0008-.007-.0021-.011-.0037-.003-.0016-.006-.0032-.008-.0045-.003-.0024-.003-.003-.001 0 .003.0032.005.0077.007.0128.002.0047.002.0084.002.0113zm-2.954-3.8618-7.584-2.0321-1.036 3.8637 7.585 2.0321zm-7.584-2.0321c-1.781-.4773-3.604.3493-4.49 1.8672l3.456 2.0154c.001-.0025.003-.0055.007-.0087.004-.0036.008-.0062.012-.0078.004-.0015.004-.0008-.001-.0004-.002.0001-.005.0002-.009-.0001-.004-.0004-.007-.0011-.011-.0019zm-4.519 1.9201-3.849 7.0837 3.514 1.9097 3.849-7.0837zm-2.177 6.0403c-1.555.0665-3.1.2667-4.6341.6l.8491 3.9089c1.314-.2854 2.632-.456 3.955-.5125zm-2.772 1.1642-5.4098-5.5951-2.8756 2.7804 5.41 5.5952zm-5.4098-5.5951c-1.2585-1.3016-3.2384-1.6106-4.8221-.6962l2 3.4641c-.0071.0041-.0166.0078-.0268.0097-.0095.0017-.0171.0015-.0223.0007-.0052-.0007-.0084-.0021-.0097-.0028-.0019-.0009.0001-.0004.0053.0049zm-4.8221-.6962-6.8275 3.9418 2 3.4641 6.8275-3.9418zm-6.8275 3.9418c-1.5837.9144-2.306 2.7835-1.8081 4.5241l3.8458-1.1001c-.0021-.0071-.0015-.0091-.0016-.007-.0001.0015-.0005.0049-.0025.0098-.0019.0049-.0055.0116-.0118.019-.0067.0078-.0146.0142-.0218.0183zm-1.8081 4.5241 2.1406 7.4829 3.8457-1.1002-2.1405-7.4828zm2.5831 5.5879c-1.0558 1.1622-2.0017 2.4-2.8365 3.713l3.3756 2.146c.7107-1.1179 1.5175-2.1741 2.4216-3.1692zm-1.1224 2.7862-7.8164-.1029-.0527 3.9996 7.8165.1029zm-7.7661-.1017c-1.8267-.07-3.464 1.1492-3.9372 2.915l3.8637 1.0353c-.0043.0162-.0138.0271-.0208.0323-.0064.0047-.0261.0158-.059.0145zm-3.9372 2.915-2.0321 7.584 3.8637 1.0353 2.0321-7.584zm-2.0321 7.584c-.4732 1.7659.3352 3.6403 1.9522 4.493l1.8658-3.5381c.0291.0153.0406.0347.0438.042.0035.008.0062.0222.0019.0384zm1.908 4.469 6.8207 3.8191 1.9542-3.4901-6.8207-3.8191zm5.7996 2.1594c.0665 1.5544.2667 3.0994.6 4.6338l3.9089-.8491c-.2854-1.3138-.456-2.6319-.5125-3.9555zm1.1642 2.7714-5.5951 5.4101 2.7804 2.8756 5.5952-5.4101zm-5.5951 5.4101c-1.3016 1.2585-1.6106 3.2383-.6962 4.822l3.4641-2c.0041.0071.0078.0167.0097.0268.0017.0096.0015.0171.0007.0223-.0007.0052-.0021.0084-.0028.0098-.0009.0018-.0004-.0002.0049-.0053zm-.6962 4.822 3.9418 6.8275 3.4641-2-3.9418-6.8275zm3.9418 6.8275c.9144 1.5837 2.7834 2.3061 4.5241 1.8081l-1.1001-3.8457c-.0071.002-.0091.0015-.007.0016.0015 0 .0049.0005.0098.0024s.0116.0055.019.0118c.0078.0067.0142.0147.0183.0218zm4.5241 1.8081 7.4829-2.1405-1.1002-3.8458-7.4828 2.1406zm5.5879-2.5831c1.1622 1.0558 2.4 2.0018 3.713 2.8365l2.146-3.3755c-1.1179-.7108-2.1741-1.5175-3.1692-2.4216zm2.7863 1.1127-.1408 7.8063 3.9993.0721.1409-7.8063zm-.1411 7.8512c.0078 1.7573 1.1731 3.3846 2.9543 3.8618l1.0353-3.8637c.0031.0009.0067.0021.0102.0037.0034.0016.0061.0032.0079.0045.0036.0025.0032.003.0009 0-.0023-.0032-.0049-.0077-.0066-.0128-.0016-.0046-.0021-.0084-.0021-.0113zm2.9543 3.8618 7.584 2.0322 1.0354-3.8637-7.5841-2.0322zm7.584 2.0322c1.7814.4772 3.6044-.3493 4.4894-1.8673l-3.455-2.0154c-.002.0025-.004.0055-.008.0088-.004.0035-.008.0062-.012.0077-.003.0015-.003.0008.001.0005.002-.0002.005-.0003.009.0001.004.0003.008.001.011.0019zm4.5114-1.9064 3.781-6.8309-3.499-1.9372-3.781 6.8309zm2.117-5.8013c1.554-.0664 3.099-.2667 4.634-.6l-.849-3.9088c-1.314.2853-2.632.4559-3.956.5125zm2.771-1.1642 5.41 5.5952 2.876-2.7805-5.41-5.5951zm5.41 5.5952c1.259 1.3016 3.239 1.6105 4.823.6962l-2-3.4641c.007-.0042.016-.0078.026-.0097.01-.0018.017-.0015.023-.0008.005.0008.008.0021.009.0028.002.001 0 .0004-.005-.0049zm4.823.6962 6.827-3.9419-2-3.4641-6.827 3.9419zm6.827-3.9419c1.584-.9143 2.306-2.7834 1.808-4.5241l-3.846 1.1001c.002.0071.002.0091.002.007 0-.0015 0-.0049.002-.0098.002-.0048.006-.0116.012-.0189.007-.0079.015-.0143.022-.0184zm1.808-4.5241-2.14-7.4828-3.846 1.1001 2.14 7.4828zm-2.583-5.5879c1.056-1.1621 2.002-2.4 2.837-3.7129l-3.376-2.1461c-.711 1.1179-1.518 2.1742-2.422 3.1693zm1.106-2.7864 8.07.1707.084-3.9991-8.069-.1707zm8.035.1696c1.827.0701 3.464-1.1491 3.938-2.9149l-3.864-1.0353c.004-.0162.014-.0271.021-.0323.006-.0047.026-.0158.059-.0145zm3.938-2.9149 2.032-7.584-3.864-1.0353-2.032 7.584zm2.032-7.584c.473-1.7659-.336-3.6403-1.953-4.493l-1.865 3.5381c-.029-.0153-.041-.0347-.044-.042-.004-.008-.006-.0222-.002-.0384zm-36.802 2.6594c-4.2648-1.1428-6.7994-5.533-5.6566-9.7979l-3.8637-1.0353c-1.7146 6.3988 2.0864 12.9824 8.4853 14.6969zm-5.6566-9.7979c1.1428-4.265 5.5326-6.7997 9.7976-5.6569l1.036-3.8637c-6.399-1.7146-12.9828 2.0864-14.6973 8.4853zm9.7976-5.6569c4.265 1.1428 6.8 5.533 5.657 9.798l3.864 1.0352c1.714-6.3988-2.087-12.9823-8.485-14.6969zm5.657 9.798c-1.143 4.2649-5.533 6.7996-9.798 5.6568l-1.035 3.8637c6.399 1.7146 12.982-2.0864 14.697-8.4853z" fill="url(#f)" mask="url(#h)"/></svg>