<svg fill="none" height="72" viewBox="0 0 329 72" width="329" xmlns="http://www.w3.org/2000/svg" xmlns:xlink="http://www.w3.org/1999/xlink"><filter id="a" color-interpolation-filters="sRGB" filterUnits="userSpaceOnUse" height="82" width="329" x="0" y="0"><feFlood flood-opacity="0" result="BackgroundImageFix"/><feBlend in="SourceGraphic" in2="BackgroundImageFix" mode="normal" result="shape"/><feColorMatrix in="SourceAlpha" result="hardAlpha" type="matrix" values="0 0 0 0 0 0 0 0 0 0 0 0 0 0 0 0 0 0 127 0"/><feOffset dy="10"/><feGaussianBlur stdDeviation="10"/><feComposite in2="hardAlpha" k2="-1" k3="1" operator="arithmetic"/><feColorMatrix type="matrix" values="0 0 0 0 0 0 0 0 0 0 0 0 0 0 0 0 0 0 0.5 0"/><feBlend in2="shape" mode="normal" result="effect1_innerShadow_1_281"/></filter><linearGradient id="b" gradientUnits="userSpaceOnUse" x1="12.681" x2="12.681" y1="3" y2="65.0437"><stop offset="0" stop-color="#38756b"/><stop offset=".264516" stop-color="#213c3c"/><stop offset=".516311" stop-color="#1a2627"/><stop offset=".754891" stop-color="#171e1d"/><stop offset="1" stop-color="#171f1c"/></linearGradient><linearGradient id="c" gradientUnits="userSpaceOnUse" x1="3" x2="3" y1="3" y2="69"><stop offset="0" stop-color="#c2fad6"/><stop offset=".502216" stop-color="#6e6e60"/><stop offset="1" stop-color="#517e63"/></linearGradient><g filter="url(#a)"><path clip-rule="evenodd" d="m3 22.1421c0-2.6521 1.05357-5.1957 2.92893-7.071l9.14217-9.14217c1.8753-1.87536 4.4189-2.92893 7.071-2.92893h284.7159c2.652 0 5.196 1.05357 7.071 2.92893l9.142 9.14217c1.875 1.8753 2.929 4.4189 2.929 7.071v27.7158c0 2.6521-1.054 5.1957-2.929 7.071l-9.142 9.1422c-1.875 1.8753-4.419 2.9289-7.071 2.9289h-284.7159c-2.6521 0-5.1957-1.0536-7.071-2.9289l-9.14217-9.1422c-1.87536-1.8753-2.92893-4.4189-2.92893-7.071z" fill="url(#b)" fill-rule="evenodd"/></g><path clip-rule="evenodd" d="m3 22.1421c0-2.6521 1.05357-5.1957 2.92893-7.071l9.14217-9.14217c1.8753-1.87536 4.4189-2.92893 7.071-2.92893h284.7159c2.652 0 5.196 1.05357 7.071 2.92893l9.142 9.14217c1.875 1.8753 2.929 4.4189 2.929 7.071v27.7158c0 2.6521-1.054 5.1957-2.929 7.071l-9.142 9.1422c-1.875 1.8753-4.419 2.9289-7.071 2.9289h-284.7159c-2.6521 0-5.1957-1.0536-7.071-2.9289l-9.14217-9.1422c-1.87536-1.8753-2.92893-4.4189-2.92893-7.071z" fill-rule="evenodd" stroke="url(#c)" stroke-width="6"/></svg>