<svg fill="none" height="80" viewBox="0 0 78 80" width="78" xmlns="http://www.w3.org/2000/svg" xmlns:xlink="http://www.w3.org/1999/xlink"><linearGradient id="a" gradientUnits="userSpaceOnUse" x1="34.7061" x2="-38.7061" y1="-30.1182" y2="43.2939"><stop offset="0" stop-color="#f1f1f1"/><stop offset=".3331" stop-color="#c1c1c1"/><stop offset=".416309" stop-color="#cecece"/><stop offset=".664881" stop-color="#9e9e9e"/><stop offset=".760659" stop-color="#c1c1c1"/><stop offset="1" stop-color="#e4e3e3"/></linearGradient><linearGradient id="b" gradientUnits="userSpaceOnUse" x1="36.067" x2="36.067" y1="0" y2="3.86601"><stop offset="0" stop-color="#fff"/><stop offset="1" stop-color="#878787"/></linearGradient><mask id="c" fill="#fff"><path clip-rule="evenodd" d="m76.2188 33.2188-9.3594-2.2969c-.5156-1.6407-1.1719-3.2344-1.9688-4.7813l4.7813-7.9687c.5625-.9375.4219-2.1094-.3281-2.8594l-6.6563-6.65625c-.75-.75-1.9219-.89063-2.8594-.32813l-7.9687 4.78128c-1.5469-.7969-3.1406-1.4532-4.7813-1.9688l-2.25-9.35935c-.2812-1.03125-1.2187-1.78125-2.2969-1.78125h-9.375c-1.0781 0-2.0156.75-2.2968 1.78125l-2.25 9.35935c-1.6406.5156-3.2344 1.1719-4.7813 1.9688l-7.9687-4.78128c-.9375-.5625-2.1094-.42187-2.8594.32813l-6.65625 6.65625c-.75.75-.89063 1.9219-.32813 2.8594l4.78128 7.9687c-.7969 1.5469-1.45315 3.1406-1.96878 4.7813l-9.04687 2.2969c-1.03125.2343-1.78125 1.1718-1.78125 2.25v9.375c0 1.0781.75 2.0156 1.78125 2.25l9.04687 2.2968c.51563 1.6406 1.17188 3.2344 1.96878 4.7813l-4.78128 7.9687c-.5625.9375-.42187 2.1094.32813 2.8594l6.65625 6.6562c.75.75 1.9219.8907 2.8594.3282l7.9687-4.7813c1.5469.7969 3.1407 1.4531 4.7813 1.9688l2.25 9.0469c.2812 1.0312 1.2187 1.7812 2.2968 1.7812h9.375c1.0782 0 2.0157-.75 2.2969-1.7812l2.25-9.0469c1.6407-.5157 3.2344-1.1719 4.7813-1.9688l7.9687 4.7813c.9375.5625 2.1094.4218 2.8594-.3282l6.6563-6.6562c.75-.75.8906-1.9219.3281-2.8594l-4.7813-7.9687c.7969-1.5469 1.4532-3.1407 1.9688-4.7813l9.3594-2.2968c1.0312-.2344 1.7812-1.1719 1.7812-2.25v-9.375c0-1.0782-.75-2.0157-1.7812-2.25zm-38.375 18.6562c-6.4688 0-11.7188-5.25-11.7188-11.7188 0-6.4687 5.25-11.7187 11.7188-11.7187 6.4687 0 11.7187 5.25 11.7187 11.7187 0 6.4688-5.25 11.7188-11.7187 11.7188z" fill="#fff" fill-rule="evenodd"/></mask><path clip-rule="evenodd" d="m76.2188 33.2188-9.3594-2.2969c-.5156-1.6407-1.1719-3.2344-1.9688-4.7813l4.7813-7.9687c.5625-.9375.4219-2.1094-.3281-2.8594l-6.6563-6.65625c-.75-.75-1.9219-.89063-2.8594-.32813l-7.9687 4.78128c-1.5469-.7969-3.1406-1.4532-4.7813-1.9688l-2.25-9.35935c-.2812-1.03125-1.2187-1.78125-2.2969-1.78125h-9.375c-1.0781 0-2.0156.75-2.2968 1.78125l-2.25 9.35935c-1.6406.5156-3.2344 1.1719-4.7813 1.9688l-7.9687-4.78128c-.9375-.5625-2.1094-.42187-2.8594.32813l-6.65625 6.65625c-.75.75-.89063 1.9219-.32813 2.8594l4.78128 7.9687c-.7969 1.5469-1.45315 3.1406-1.96878 4.7813l-9.04687 2.2969c-1.03125.2343-1.78125 1.1718-1.78125 2.25v9.375c0 1.0781.75 2.0156 1.78125 2.25l9.04687 2.2968c.51563 1.6406 1.17188 3.2344 1.96878 4.7813l-4.78128 7.9687c-.5625.9375-.42187 2.1094.32813 2.8594l6.65625 6.6562c.75.75 1.9219.8907 2.8594.3282l7.9687-4.7813c1.5469.7969 3.1407 1.4531 4.7813 1.9688l2.25 9.0469c.2812 1.0312 1.2187 1.7812 2.2968 1.7812h9.375c1.0782 0 2.0157-.75 2.2969-1.7812l2.25-9.0469c1.6407-.5157 3.2344-1.1719 4.7813-1.9688l7.9687 4.7813c.9375.5625 2.1094.4218 2.8594-.3282l6.6563-6.6562c.75-.75.8906-1.9219.3281-2.8594l-4.7813-7.9687c.7969-1.5469 1.4532-3.1407 1.9688-4.7813l9.3594-2.2968c1.0312-.2344 1.7812-1.1719 1.7812-2.25v-9.375c0-1.0782-.75-2.0157-1.7812-2.25zm-38.375 18.6562c-6.4688 0-11.7188-5.25-11.7188-11.7188 0-6.4687 5.25-11.7187 11.7188-11.7187 6.4687 0 11.7187 5.25 11.7187 11.7187 0 6.4688-5.25 11.7188-11.7187 11.7188z" fill="url(#a)" fill-rule="evenodd"/><path d="m76.2188 33.2188-.4767 1.9423.0167.0041.0167.0038zm-9.3594-2.2969-1.908.5996.3376 1.0743 1.0937.2684zm-1.9688-4.7813-1.715-1.029-.5729.955.51.9899zm-13.0312-13.0312-.9159 1.7779.9899.51.955-.5729zm-4.7813-1.9688-1.9446.4675.2647 1.101 1.0803.3395zm-2.25-9.35935 1.9446-.46748-.0071-.02949-.0079-.02926zm-13.9687 0-1.9296-.52623-.0079.02926-.0071.02949zm-2.25 9.35935.5996 1.908 1.0803-.3395.2647-1.101zm-4.7813 1.9688-1.029 1.715.955.5729.9899-.51zm-13.0312 13.0312 1.7779.9159.51-.9899-.5729-.955zm-1.96878 4.7813.49216 1.9385 1.08132-.2746.3345-1.0643zm-9.04687 2.2969.443242 1.9502.024532-.0056.024384-.0062zm0 13.875.492158-1.9385-.024384-.0062-.024532-.0056zm9.04687 2.2968 1.90798-.5996-.3345-1.0643-1.08132-.2746zm1.96878 4.7813 1.715 1.029.5729-.955-.51-.9899zm13.0312 13.0312.9159-1.7779-.9899-.51-.955.5729zm4.7813 1.9688 1.9409-.4827-.2709-1.0889-1.0704-.3364zm2.25 9.0469-1.9409.4827.0054.0218.0059.0217zm13.9687 0 1.9296.5262.0059-.0217.0054-.0218zm2.25-9.0469-.5996-1.908-1.0704.3364-.2709 1.0889zm4.7813-1.9688 1.029-1.715-.955-.5729-.9899.51zm13.0312-13.0312-1.7779-.9159-.51.9899.5729.955zm1.9688-4.7813-.4767-1.9423-1.0937.2684-.3376 1.0743zm9.3594-2.2968-.4433-1.9503-.0167.0038-.0167.0041zm.4766-15.8174-9.3593-2.2969-.9534 3.8847 9.3594 2.2969zm-7.928-.9542c-.5503-1.7508-1.2503-3.4503-2.0988-5.0975l-3.5559 1.8318c.7452 1.4466 1.3577 2.9346 1.8387 4.465zm-2.1618-3.1526 4.7813-7.9687-3.43-2.058-4.7813 7.9687zm4.7813-7.9687c1.0229-1.7049.786-3.8876-.6289-5.3026l-2.8285 2.8284c.0851.085.1295.246.0274.4162zm-.6289-5.3026-6.6563-6.65626-2.8284 2.82846 6.6562 6.6562zm-6.6563-6.65626c-1.415-1.41497-3.5977-1.65181-5.3026-.6289l2.058 3.42996c.1702-.10208.3312-.05767.4162.0274zm-5.3026-.6289-7.9687 4.78126 2.058 3.43 7.9687-4.7813zm-6.0238 4.71826c-1.6472-.8485-3.3467-1.5485-5.0975-2.09876l-1.1993 3.81596c1.5304.481 3.0184 1.0935 4.465 1.8387zm-3.7526-.6583-2.25-9.35933-3.8892.93496 2.25 9.35937zm-2.265-9.41808c-.5081-1.862968-2.2072-3.25502-4.2265-3.25502v4c.1371 0 .313.10795.3674.30748zm-4.2265-3.25502h-9.375v4h9.375zm-9.375 0c-2.0192 0-3.7183 1.392052-4.2264 3.25502l3.8591 1.05246c.0544-.19953.2303-.30748.3673-.30748zm-4.2414 3.31377-2.25 9.35933 3.8892.935 2.25-9.35937zm-.9051 7.91887c-1.7508.55026-3.4503 1.25026-5.0975 2.09876l1.8318 3.5559c1.4466-.7452 2.9346-1.3577 4.465-1.8387zm-3.1526 2.16176-7.9687-4.78126-2.058 3.42996 7.9687 4.7813zm-7.9687-4.78126c-1.7049-1.02291-3.8876-.78607-5.3026.6289l2.8284 2.82846c.085-.08507.246-.12948.4162-.0274zm-5.3026.6289-6.65626 6.65626 2.82842 2.8284 6.65624-6.6562zm-6.65626 6.65626c-1.41497 1.415-1.65181 3.5977-.6289 5.3026l3.42997-2.058c-.10209-.1702-.05768-.3312.02735-.4162zm-.6289 5.3026 4.78125 7.9687 3.43001-2.058-4.78129-7.9687zm4.71829 6.0238c-.84856 1.6472-1.54853 3.3467-2.09879 5.0975l3.81596 1.1993c.481-1.5304 1.0935-3.0184 1.8387-4.465zm-.68296 3.7587-9.046878 2.2969.984316 3.8769 9.046872-2.2968zm-8.997962 2.2851c-1.950188.4432-3.338008 2.1969-3.338008 4.2003h4c0-.0708.0241168-.1398.070128-.1977.046448-.0585.10263-.0903.154364-.1021zm-3.338008 4.2003v9.375h4v-9.375zm0 9.375c0 2.0033 1.38782 3.757 3.338008 4.2002l.886484-3.9005c-.051734-.0118-.107916-.0436-.154364-.1021-.0460112-.0579-.070128-.1269-.070128-.1976zm3.289092 4.1884 9.046878 2.2969.98431-3.877-9.046872-2.2968zm7.631048.9581c.55026 1.7508 1.25023 3.4503 2.09879 5.0975l3.55587-1.8318c-.7452-1.4466-1.3577-2.9346-1.8387-4.465zm2.16175 3.1526-4.78125 7.9687 3.42997 2.058 4.78129-7.9687zm-4.78125 7.9687c-1.02291 1.7049-.78607 3.8876.6289 5.3026l2.82842-2.8284c-.08503-.085-.12944-.246-.02735-.4162zm.6289 5.3026 6.65626 6.6563 2.8284-2.8285-6.65624-6.6562zm6.65626 6.6563c1.415 1.4149 3.5977 1.6518 5.3026.6289l-2.058-3.43c-.1702.1021-.3312.0577-.4162-.0274zm5.3026.6289 7.9687-4.7813-2.058-3.43-7.9687 4.7813zm6.0238-4.7183c1.6472.8485 3.3467 1.5485 5.0975 2.0988l1.1993-3.816c-1.5304-.481-3.0184-1.0935-4.465-1.8387zm3.7563.6735 2.25 9.0469 3.8818-.9655-2.25-9.0468zm2.2613 9.0904c.5081 1.8629 2.2072 3.255 4.2264 3.255v-4c-.137 0-.3129-.1079-.3673-.3075zm4.2264 3.255h9.375v-4h-9.375zm9.375 0c2.0193 0 3.7184-1.3921 4.2265-3.255l-3.8591-1.0525c-.0544.1996-.2303.3075-.3674.3075zm4.2378-3.2985 2.25-9.0469-3.8818-.9654-2.25 9.0468zm.9088-7.6216c1.7508-.5503 3.4503-1.2503 5.0975-2.0988l-1.8318-3.5559c-1.4466.7452-2.9346 1.3577-4.465 1.8387zm3.1526-2.1618 7.9687 4.7813 2.058-3.43-7.9687-4.7813zm7.9687 4.7813c1.7049 1.0229 3.8876.786 5.3026-.6289l-2.8284-2.8285c-.085.0851-.246.1295-.4162.0274zm5.3026-.6289 6.6563-6.6563-2.8285-2.8284-6.6562 6.6562zm6.6563-6.6563c1.4149-1.415 1.6518-3.5977.6289-5.3026l-3.43 2.058c.1021.1702.0577.3312-.0274.4162zm.6289-5.3026-4.7813-7.9687-3.43 2.058 4.7813 7.9687zm-4.7183-6.0238c.8485-1.6472 1.5485-3.3467 2.0988-5.0975l-3.816-1.1993c-.481 1.5304-1.0935 3.0184-1.8387 4.465zm.6675-3.7548 9.3593-2.2969-.9533-3.8847-9.3594 2.2969zm9.3259-2.289c1.9502-.4432 3.338-2.1969 3.338-4.2002h-4c0 .0707-.0241.1397-.0701.1976-.0465.0585-.1027.0903-.1544.1021zm3.338-4.2002v-9.375h-4v9.375zm0-9.375c0-2.0034-1.3878-3.7571-3.338-4.2003l-.8865 3.9005c.0517.0118.1079.0436.1544.1021.046.0579.0701.1269.0701.1977zm-42.1562 14.4062c-5.3642 0-9.7188-4.3546-9.7188-9.7188h-4c0 7.5734 6.1454 13.7188 13.7188 13.7188zm-9.7188-9.7188c0-5.3641 4.3546-9.7187 9.7188-9.7187v-4c-7.5734 0-13.7188 6.1454-13.7188 13.7187zm9.7188-9.7187c5.3641 0 9.7187 4.3546 9.7187 9.7187h4c0-7.5733-6.1454-13.7187-13.7187-13.7187zm9.7187 9.7187c0 5.3642-4.3546 9.7188-9.7187 9.7188v4c7.5733 0 13.7187-6.1454 13.7187-13.7188z" fill="url(#b)" mask="url(#c)"/></svg>