<svg fill="none" height="31" viewBox="0 0 128 31" width="128" xmlns="http://www.w3.org/2000/svg" xmlns:xlink="http://www.w3.org/1999/xlink"><filter id="a" color-interpolation-filters="sRGB" filterUnits="userSpaceOnUse" height="31" width="26" x="97" y="0"><feFlood flood-opacity="0" result="BackgroundImageFix"/><feBlend in="SourceGraphic" in2="BackgroundImageFix" mode="normal" result="shape"/><feColorMatrix in="SourceAlpha" result="hardAlpha" type="matrix" values="0 0 0 0 0 0 0 0 0 0 0 0 0 0 0 0 0 0 127 0"/><feOffset dy="1"/><feComposite in2="hardAlpha" k2="-1" k3="1" operator="arithmetic"/><feColorMatrix type="matrix" values="0 0 0 0 1 0 0 0 0 1 0 0 0 0 1 0 0 0 0.8 0"/><feBlend in2="shape" mode="normal" result="effect1_innerShadow_1_156"/></filter><filter id="b" color-interpolation-filters="sRGB" filterUnits="userSpaceOnUse" height="8" width="36" x="92" y="18"><feFlood flood-opacity="0" result="BackgroundImageFix"/><feBlend in="SourceGraphic" in2="BackgroundImageFix" mode="normal" result="shape"/><feColorMatrix in="SourceAlpha" result="hardAlpha" type="matrix" values="0 0 0 0 0 0 0 0 0 0 0 0 0 0 0 0 0 0 127 0"/><feOffset/><feGaussianBlur stdDeviation="1"/><feComposite in2="hardAlpha" k2="-1" k3="1" operator="arithmetic"/><feColorMatrix type="matrix" values="0 0 0 0 0 0 0 0 0 0 0 0 0 0 0 0 0 0 0.8 0"/><feBlend in2="shape" mode="normal" result="effect1_innerShadow_1_156"/></filter><filter id="c" color-interpolation-filters="sRGB" filterUnits="userSpaceOnUse" height="31" width="26" x="51" y="0"><feFlood flood-opacity="0" result="BackgroundImageFix"/><feBlend in="SourceGraphic" in2="BackgroundImageFix" mode="normal" result="shape"/><feColorMatrix in="SourceAlpha" result="hardAlpha" type="matrix" values="0 0 0 0 0 0 0 0 0 0 0 0 0 0 0 0 0 0 127 0"/><feOffset dy="1"/><feComposite in2="hardAlpha" k2="-1" k3="1" operator="arithmetic"/><feColorMatrix type="matrix" values="0 0 0 0 1 0 0 0 0 1 0 0 0 0 1 0 0 0 0.8 0"/><feBlend in2="shape" mode="normal" result="effect1_innerShadow_1_156"/></filter><filter id="d" color-interpolation-filters="sRGB" filterUnits="userSpaceOnUse" height="8" width="36" x="46" y="18"><feFlood flood-opacity="0" result="BackgroundImageFix"/><feBlend in="SourceGraphic" in2="BackgroundImageFix" mode="normal" result="shape"/><feColorMatrix in="SourceAlpha" result="hardAlpha" type="matrix" values="0 0 0 0 0 0 0 0 0 0 0 0 0 0 0 0 0 0 127 0"/><feOffset/><feGaussianBlur stdDeviation="1"/><feComposite in2="hardAlpha" k2="-1" k3="1" operator="arithmetic"/><feColorMatrix type="matrix" values="0 0 0 0 0 0 0 0 0 0 0 0 0 0 0 0 0 0 0.8 0"/><feBlend in2="shape" mode="normal" result="effect1_innerShadow_1_156"/></filter><filter id="e" color-interpolation-filters="sRGB" filterUnits="userSpaceOnUse" height="31" width="26" x="5" y="0"><feFlood flood-opacity="0" result="BackgroundImageFix"/><feBlend in="SourceGraphic" in2="BackgroundImageFix" mode="normal" result="shape"/><feColorMatrix in="SourceAlpha" result="hardAlpha" type="matrix" values="0 0 0 0 0 0 0 0 0 0 0 0 0 0 0 0 0 0 127 0"/><feOffset dy="1"/><feComposite in2="hardAlpha" k2="-1" k3="1" operator="arithmetic"/><feColorMatrix type="matrix" values="0 0 0 0 1 0 0 0 0 1 0 0 0 0 1 0 0 0 0.8 0"/><feBlend in2="shape" mode="normal" result="effect1_innerShadow_1_156"/></filter><filter id="f" color-interpolation-filters="sRGB" filterUnits="userSpaceOnUse" height="8" width="36" x="0" y="18"><feFlood flood-opacity="0" result="BackgroundImageFix"/><feBlend in="SourceGraphic" in2="BackgroundImageFix" mode="normal" result="shape"/><feColorMatrix in="SourceAlpha" result="hardAlpha" type="matrix" values="0 0 0 0 0 0 0 0 0 0 0 0 0 0 0 0 0 0 127 0"/><feOffset/><feGaussianBlur stdDeviation="1"/><feComposite in2="hardAlpha" k2="-1" k3="1" operator="arithmetic"/><feColorMatrix type="matrix" values="0 0 0 0 0 0 0 0 0 0 0 0 0 0 0 0 0 0 0.8 0"/><feBlend in2="shape" mode="normal" result="effect1_innerShadow_1_156"/></filter><linearGradient id="g"><stop offset="0" stop-opacity=".01"/><stop offset="1" stop-opacity=".3"/></linearGradient><linearGradient id="h" gradientUnits="userSpaceOnUse" x1="103.728" x2="103.728" xlink:href="#g" y1="10.5452" y2="25.5017"/><linearGradient id="i"><stop offset="0" stop-color="#fff"/><stop offset="1" stop-color="#fff" stop-opacity=".01"/></linearGradient><linearGradient id="j" gradientUnits="userSpaceOnUse" x1="102.511" x2="102.511" xlink:href="#i" y1="3" y2="16.3133"/><linearGradient id="k" gradientUnits="userSpaceOnUse" x1="104.734" x2="104.734" xlink:href="#i" y1="3" y2="10.899"/><linearGradient id="l"><stop offset="0" stop-color="#959599"/><stop offset=".507918" stop-color="#eee"/><stop offset="1" stop-color="#959599"/></linearGradient><linearGradient id="m" gradientUnits="userSpaceOnUse" x1="92" x2="128" xlink:href="#l" y1="26.3193" y2="26.3193"/><linearGradient id="n" gradientUnits="userSpaceOnUse" x1="57.7279" x2="57.7279" xlink:href="#g" y1="10.5452" y2="25.5017"/><linearGradient id="o" gradientUnits="userSpaceOnUse" x1="56.5113" x2="56.5113" xlink:href="#i" y1="3" y2="16.3133"/><linearGradient id="p" gradientUnits="userSpaceOnUse" x1="58.734" x2="58.734" xlink:href="#i" y1="3" y2="10.899"/><linearGradient id="q" gradientUnits="userSpaceOnUse" x1="46" x2="82" xlink:href="#l" y1="26.3193" y2="26.3193"/><linearGradient id="r" gradientUnits="userSpaceOnUse" x1="11.7279" x2="11.7279" xlink:href="#g" y1="10.5452" y2="25.5017"/><linearGradient id="s" gradientUnits="userSpaceOnUse" x1="10.5113" x2="10.5113" xlink:href="#i" y1="3" y2="16.3133"/><linearGradient id="t" gradientUnits="userSpaceOnUse" x1="12.734" x2="12.734" xlink:href="#i" y1="3" y2="10.899"/><linearGradient id="u" gradientUnits="userSpaceOnUse" x1="0" x2="36" xlink:href="#l" y1="26.3193" y2="26.3193"/><g clip-rule="evenodd" fill-rule="evenodd" filter="url(#a)"><path d="m97 13c0-7.1797 5.82-13 13-13s13 5.8203 13 13v18h-26z" fill="#1565c0"/><path d="m97 13c0-7.1797 5.82-13 13-13s13 5.8203 13 13v18h-26z" fill="url(#h)"/></g><ellipse cx="110" cy="11" fill="url(#j)" opacity=".2" rx="9" ry="8"/><ellipse cx="110" cy="7.5" fill="url(#k)" opacity=".6" rx="6" ry="4.5"/><g filter="url(#b)"><rect fill="url(#m)" height="8" rx="3" width="36" x="92" y="18"/></g><g clip-rule="evenodd" fill-rule="evenodd" filter="url(#c)"><path d="m51 13c0-7.1797 5.8203-13 13-13s13 5.8203 13 13v18h-26z" fill="#e53935"/><path d="m51 13c0-7.1797 5.8203-13 13-13s13 5.8203 13 13v18h-26z" fill="url(#n)"/></g><ellipse cx="64" cy="11" fill="url(#o)" opacity=".2" rx="9" ry="8"/><ellipse cx="64" cy="7.5" fill="url(#p)" opacity=".6" rx="6" ry="4.5"/><g filter="url(#d)"><rect fill="url(#q)" height="8" rx="3" width="36" x="46" y="18"/></g><g clip-rule="evenodd" fill-rule="evenodd" filter="url(#e)"><path d="m5 13c0-7.1797 5.8203-13 13-13s13 5.8203 13 13v18h-26z" fill="#43a047"/><path d="m5 13c0-7.1797 5.8203-13 13-13s13 5.8203 13 13v18h-26z" fill="url(#r)"/></g><ellipse cx="18" cy="11" fill="url(#s)" opacity=".2" rx="9" ry="8"/><ellipse cx="18" cy="7.5" fill="url(#t)" opacity=".6" rx="6" ry="4.5"/><g filter="url(#f)"><rect fill="url(#u)" height="8" rx="3" width="36" y="18"/></g></svg>